<mxfile host="app.diagrams.net" modified="2022-09-08T14:30:00.477Z" agent="5.0 (Windows NT 10.0; Win64; x64) AppleWebKit/537.36 (KHTML, like Gecko) Chrome/105.0.0.0 Safari/537.36" etag="D34kDrnSVPN5kAMJLOH-" version="20.3.0" type="github">
  <diagram id="sPrJVKOPZWgMPdXIzLhy" name="Page-1">
    <mxGraphModel dx="1422" dy="857" grid="1" gridSize="10" guides="1" tooltips="1" connect="1" arrows="1" fold="1" page="1" pageScale="1" pageWidth="850" pageHeight="1100" math="0" shadow="0">
      <root>
        <mxCell id="0" />
        <mxCell id="1" parent="0" />
        <mxCell id="x6KIibof9C7e68i9qz5j-10" value="" style="edgeStyle=orthogonalEdgeStyle;rounded=0;orthogonalLoop=1;jettySize=auto;html=1;endArrow=none;endFill=0;" edge="1" parent="1" source="x6KIibof9C7e68i9qz5j-1" target="x6KIibof9C7e68i9qz5j-2">
          <mxGeometry relative="1" as="geometry" />
        </mxCell>
        <mxCell id="x6KIibof9C7e68i9qz5j-1" value="L1" style="ellipse;whiteSpace=wrap;html=1;" vertex="1" parent="1">
          <mxGeometry x="20" y="175" width="100" height="60" as="geometry" />
        </mxCell>
        <mxCell id="x6KIibof9C7e68i9qz5j-2" value="L1&lt;br&gt;L2" style="ellipse;whiteSpace=wrap;html=1;" vertex="1" parent="1">
          <mxGeometry x="20" y="55" width="100" height="60" as="geometry" />
        </mxCell>
        <mxCell id="x6KIibof9C7e68i9qz5j-3" value="Commit:&amp;nbsp;969b4af" style="text;html=1;strokeColor=none;fillColor=none;align=center;verticalAlign=middle;whiteSpace=wrap;rounded=0;" vertex="1" parent="1">
          <mxGeometry x="130" y="190" width="110" height="30" as="geometry" />
        </mxCell>
        <mxCell id="x6KIibof9C7e68i9qz5j-4" value="Commit:&amp;nbsp;9a2111f" style="text;html=1;strokeColor=none;fillColor=none;align=center;verticalAlign=middle;whiteSpace=wrap;rounded=0;" vertex="1" parent="1">
          <mxGeometry x="130" y="70" width="110" height="30" as="geometry" />
        </mxCell>
        <mxCell id="x6KIibof9C7e68i9qz5j-11" value="" style="endArrow=none;html=1;rounded=0;entryX=0.5;entryY=1;entryDx=0;entryDy=0;" edge="1" parent="1" target="x6KIibof9C7e68i9qz5j-1">
          <mxGeometry width="50" height="50" relative="1" as="geometry">
            <mxPoint x="70" y="295" as="sourcePoint" />
            <mxPoint x="305" y="285" as="targetPoint" />
          </mxGeometry>
        </mxCell>
        <mxCell id="x6KIibof9C7e68i9qz5j-12" value="" style="endArrow=none;html=1;rounded=0;" edge="1" parent="1">
          <mxGeometry width="50" height="50" relative="1" as="geometry">
            <mxPoint x="30" y="295" as="sourcePoint" />
            <mxPoint x="105" y="295" as="targetPoint" />
          </mxGeometry>
        </mxCell>
        <mxCell id="x6KIibof9C7e68i9qz5j-13" value="master" style="verticalLabelPosition=middle;verticalAlign=middle;html=1;shape=offPageConnector;rounded=0;size=0.6428571428571429;rotation=90;labelPosition=center;align=center;horizontal=0;strokeColor=#CCCCCC;fontColor=#B3B3B3;" vertex="1" parent="1">
          <mxGeometry x="251.25" y="178.75" width="45" height="57.5" as="geometry" />
        </mxCell>
        <mxCell id="x6KIibof9C7e68i9qz5j-15" value="branch1" style="verticalLabelPosition=middle;verticalAlign=middle;html=1;shape=offPageConnector;rounded=0;size=0.5;rotation=90;labelPosition=center;align=center;horizontal=0;fillColor=#dae8fc;gradientColor=#7ea6e0;strokeColor=#6c8ebf;" vertex="1" parent="1">
          <mxGeometry x="255" width="40" height="70" as="geometry" />
        </mxCell>
        <mxCell id="x6KIibof9C7e68i9qz5j-16" value="branch2" style="verticalLabelPosition=middle;verticalAlign=middle;html=1;shape=offPageConnector;rounded=0;size=0.5;rotation=90;labelPosition=center;align=center;horizontal=0;fillColor=#cce5ff;strokeColor=#36393d;" vertex="1" parent="1">
          <mxGeometry x="255" y="90" width="40" height="70" as="geometry" />
        </mxCell>
        <mxCell id="x6KIibof9C7e68i9qz5j-17" value="master" style="verticalLabelPosition=middle;verticalAlign=middle;html=1;shape=offPageConnector;rounded=0;size=0.5;rotation=90;labelPosition=center;align=center;horizontal=0;" vertex="1" parent="1">
          <mxGeometry x="255" y="45" width="40" height="70" as="geometry" />
        </mxCell>
        <mxCell id="x6KIibof9C7e68i9qz5j-18" value="HEAD" style="verticalLabelPosition=middle;verticalAlign=middle;html=1;shape=offPageConnector;rounded=0;size=0.5;rotation=90;labelPosition=center;align=center;horizontal=0;fillColor=#f5f5f5;gradientColor=#b3b3b3;strokeColor=#666666;" vertex="1" parent="1">
          <mxGeometry x="335" y="45" width="40" height="70" as="geometry" />
        </mxCell>
        <mxCell id="x6KIibof9C7e68i9qz5j-19" value="" style="edgeStyle=orthogonalEdgeStyle;rounded=0;orthogonalLoop=1;jettySize=auto;html=1;endArrow=none;endFill=0;" edge="1" parent="1" source="x6KIibof9C7e68i9qz5j-20" target="x6KIibof9C7e68i9qz5j-21">
          <mxGeometry relative="1" as="geometry" />
        </mxCell>
        <mxCell id="x6KIibof9C7e68i9qz5j-20" value="L1" style="ellipse;whiteSpace=wrap;html=1;" vertex="1" parent="1">
          <mxGeometry x="20" y="577" width="100" height="60" as="geometry" />
        </mxCell>
        <mxCell id="x6KIibof9C7e68i9qz5j-32" value="" style="edgeStyle=orthogonalEdgeStyle;rounded=0;orthogonalLoop=1;jettySize=auto;html=1;fontColor=#B3B3B3;endArrow=none;endFill=0;" edge="1" parent="1" source="x6KIibof9C7e68i9qz5j-21" target="x6KIibof9C7e68i9qz5j-31">
          <mxGeometry relative="1" as="geometry" />
        </mxCell>
        <mxCell id="x6KIibof9C7e68i9qz5j-21" value="L1&lt;br&gt;L2" style="ellipse;whiteSpace=wrap;html=1;" vertex="1" parent="1">
          <mxGeometry x="20" y="457" width="100" height="60" as="geometry" />
        </mxCell>
        <mxCell id="x6KIibof9C7e68i9qz5j-22" value="Commit:&amp;nbsp;969b4af" style="text;html=1;strokeColor=none;fillColor=none;align=center;verticalAlign=middle;whiteSpace=wrap;rounded=0;" vertex="1" parent="1">
          <mxGeometry x="130" y="592" width="110" height="30" as="geometry" />
        </mxCell>
        <mxCell id="x6KIibof9C7e68i9qz5j-23" value="Commit:&amp;nbsp;9a2111f" style="text;html=1;strokeColor=none;fillColor=none;align=center;verticalAlign=middle;whiteSpace=wrap;rounded=0;" vertex="1" parent="1">
          <mxGeometry x="130" y="472" width="110" height="30" as="geometry" />
        </mxCell>
        <mxCell id="x6KIibof9C7e68i9qz5j-24" value="" style="endArrow=none;html=1;rounded=0;entryX=0.5;entryY=1;entryDx=0;entryDy=0;" edge="1" parent="1" target="x6KIibof9C7e68i9qz5j-20">
          <mxGeometry width="50" height="50" relative="1" as="geometry">
            <mxPoint x="70" y="697" as="sourcePoint" />
            <mxPoint x="305" y="687" as="targetPoint" />
          </mxGeometry>
        </mxCell>
        <mxCell id="x6KIibof9C7e68i9qz5j-25" value="" style="endArrow=none;html=1;rounded=0;" edge="1" parent="1">
          <mxGeometry width="50" height="50" relative="1" as="geometry">
            <mxPoint x="30" y="697" as="sourcePoint" />
            <mxPoint x="105" y="697" as="targetPoint" />
          </mxGeometry>
        </mxCell>
        <mxCell id="x6KIibof9C7e68i9qz5j-26" value="master" style="verticalLabelPosition=middle;verticalAlign=middle;html=1;shape=offPageConnector;rounded=0;size=0.6428571428571429;rotation=90;labelPosition=center;align=center;horizontal=0;strokeColor=#CCCCCC;fontColor=#B3B3B3;" vertex="1" parent="1">
          <mxGeometry x="251.25" y="580.75" width="45" height="57.5" as="geometry" />
        </mxCell>
        <mxCell id="x6KIibof9C7e68i9qz5j-27" value="branch1" style="verticalLabelPosition=middle;verticalAlign=middle;html=1;shape=offPageConnector;rounded=0;size=0.5;rotation=90;labelPosition=center;align=center;horizontal=0;fillColor=#dae8fc;gradientColor=#7ea6e0;strokeColor=#6c8ebf;" vertex="1" parent="1">
          <mxGeometry x="256.25" y="350" width="40" height="70" as="geometry" />
        </mxCell>
        <mxCell id="x6KIibof9C7e68i9qz5j-28" value="branch2" style="verticalLabelPosition=middle;verticalAlign=middle;html=1;shape=offPageConnector;rounded=0;size=0.5;rotation=90;labelPosition=center;align=center;horizontal=0;fillColor=#cce5ff;strokeColor=#36393d;" vertex="1" parent="1">
          <mxGeometry x="255" y="492" width="40" height="70" as="geometry" />
        </mxCell>
        <mxCell id="x6KIibof9C7e68i9qz5j-29" value="master" style="verticalLabelPosition=middle;verticalAlign=middle;html=1;shape=offPageConnector;rounded=0;size=0.5;rotation=90;labelPosition=center;align=center;horizontal=0;" vertex="1" parent="1">
          <mxGeometry x="255" y="447" width="40" height="70" as="geometry" />
        </mxCell>
        <mxCell id="x6KIibof9C7e68i9qz5j-30" value="HEAD" style="verticalLabelPosition=middle;verticalAlign=middle;html=1;shape=offPageConnector;rounded=0;size=0.5;rotation=90;labelPosition=center;align=center;horizontal=0;fillColor=#f5f5f5;gradientColor=#b3b3b3;strokeColor=#666666;" vertex="1" parent="1">
          <mxGeometry x="335" y="350" width="40" height="70" as="geometry" />
        </mxCell>
        <mxCell id="x6KIibof9C7e68i9qz5j-31" value="&lt;font color=&quot;#00994d&quot;&gt;L1&lt;/font&gt;" style="ellipse;whiteSpace=wrap;html=1;" vertex="1" parent="1">
          <mxGeometry x="20" y="360" width="100" height="60" as="geometry" />
        </mxCell>
        <mxCell id="x6KIibof9C7e68i9qz5j-33" value="Commit:&amp;nbsp;e1b738c" style="text;html=1;strokeColor=none;fillColor=none;align=center;verticalAlign=middle;whiteSpace=wrap;rounded=0;" vertex="1" parent="1">
          <mxGeometry x="130" y="370" width="110" height="30" as="geometry" />
        </mxCell>
        <mxCell id="x6KIibof9C7e68i9qz5j-34" value="" style="edgeStyle=orthogonalEdgeStyle;rounded=0;orthogonalLoop=1;jettySize=auto;html=1;endArrow=none;endFill=0;" edge="1" parent="1" source="x6KIibof9C7e68i9qz5j-35" target="x6KIibof9C7e68i9qz5j-37">
          <mxGeometry relative="1" as="geometry" />
        </mxCell>
        <mxCell id="x6KIibof9C7e68i9qz5j-35" value="L1" style="ellipse;whiteSpace=wrap;html=1;" vertex="1" parent="1">
          <mxGeometry x="980" y="557" width="100" height="60" as="geometry" />
        </mxCell>
        <mxCell id="x6KIibof9C7e68i9qz5j-36" value="" style="edgeStyle=orthogonalEdgeStyle;rounded=0;orthogonalLoop=1;jettySize=auto;html=1;fontColor=#B3B3B3;endArrow=none;endFill=0;" edge="1" parent="1" source="x6KIibof9C7e68i9qz5j-37" target="x6KIibof9C7e68i9qz5j-47">
          <mxGeometry relative="1" as="geometry" />
        </mxCell>
        <mxCell id="x6KIibof9C7e68i9qz5j-51" style="rounded=0;orthogonalLoop=1;jettySize=auto;html=1;entryX=0.5;entryY=1;entryDx=0;entryDy=0;fontColor=#7F00FF;endArrow=none;endFill=0;" edge="1" parent="1" source="x6KIibof9C7e68i9qz5j-37" target="x6KIibof9C7e68i9qz5j-49">
          <mxGeometry relative="1" as="geometry" />
        </mxCell>
        <mxCell id="x6KIibof9C7e68i9qz5j-37" value="L1&lt;br&gt;L2" style="ellipse;whiteSpace=wrap;html=1;" vertex="1" parent="1">
          <mxGeometry x="980" y="437" width="100" height="60" as="geometry" />
        </mxCell>
        <mxCell id="x6KIibof9C7e68i9qz5j-38" value="Commit:&amp;nbsp;969b4af" style="text;html=1;strokeColor=none;fillColor=none;align=center;verticalAlign=middle;whiteSpace=wrap;rounded=0;" vertex="1" parent="1">
          <mxGeometry x="1090" y="572" width="110" height="30" as="geometry" />
        </mxCell>
        <mxCell id="x6KIibof9C7e68i9qz5j-39" value="Commit:&amp;nbsp;9a2111f" style="text;html=1;strokeColor=none;fillColor=none;align=center;verticalAlign=middle;whiteSpace=wrap;rounded=0;" vertex="1" parent="1">
          <mxGeometry x="1090" y="452" width="110" height="30" as="geometry" />
        </mxCell>
        <mxCell id="x6KIibof9C7e68i9qz5j-40" value="" style="endArrow=none;html=1;rounded=0;entryX=0.5;entryY=1;entryDx=0;entryDy=0;" edge="1" parent="1" target="x6KIibof9C7e68i9qz5j-35">
          <mxGeometry width="50" height="50" relative="1" as="geometry">
            <mxPoint x="1030" y="677" as="sourcePoint" />
            <mxPoint x="1265" y="667" as="targetPoint" />
          </mxGeometry>
        </mxCell>
        <mxCell id="x6KIibof9C7e68i9qz5j-41" value="" style="endArrow=none;html=1;rounded=0;" edge="1" parent="1">
          <mxGeometry width="50" height="50" relative="1" as="geometry">
            <mxPoint x="990" y="677" as="sourcePoint" />
            <mxPoint x="1065" y="677" as="targetPoint" />
          </mxGeometry>
        </mxCell>
        <mxCell id="x6KIibof9C7e68i9qz5j-42" value="master" style="verticalLabelPosition=middle;verticalAlign=middle;html=1;shape=offPageConnector;rounded=0;size=0.6428571428571429;rotation=90;labelPosition=center;align=center;horizontal=0;strokeColor=#CCCCCC;fontColor=#B3B3B3;" vertex="1" parent="1">
          <mxGeometry x="1211.25" y="560.75" width="45" height="57.5" as="geometry" />
        </mxCell>
        <mxCell id="x6KIibof9C7e68i9qz5j-43" value="branch1" style="verticalLabelPosition=middle;verticalAlign=middle;html=1;shape=offPageConnector;rounded=0;size=0.5;rotation=90;labelPosition=center;align=center;horizontal=0;fillColor=#dae8fc;gradientColor=#7ea6e0;strokeColor=#6c8ebf;" vertex="1" parent="1">
          <mxGeometry x="1216.25" y="330" width="40" height="70" as="geometry" />
        </mxCell>
        <mxCell id="x6KIibof9C7e68i9qz5j-44" value="branch2" style="verticalLabelPosition=middle;verticalAlign=middle;html=1;shape=offPageConnector;rounded=0;size=0.5;rotation=-91;labelPosition=center;align=center;horizontal=1;fillColor=#cce5ff;strokeColor=#36393d;" vertex="1" parent="1">
          <mxGeometry x="382.90999999999997" y="685.89" width="65.09" height="58.21" as="geometry" />
        </mxCell>
        <mxCell id="x6KIibof9C7e68i9qz5j-45" value="master" style="verticalLabelPosition=middle;verticalAlign=middle;html=1;shape=offPageConnector;rounded=0;size=0.5;rotation=90;labelPosition=center;align=center;horizontal=0;" vertex="1" parent="1">
          <mxGeometry x="1215" y="427" width="40" height="70" as="geometry" />
        </mxCell>
        <mxCell id="x6KIibof9C7e68i9qz5j-46" value="HEAD" style="verticalLabelPosition=middle;verticalAlign=middle;html=1;shape=offPageConnector;rounded=0;size=0.5;rotation=-90;labelPosition=center;align=center;horizontal=1;fillColor=#f5f5f5;gradientColor=#b3b3b3;strokeColor=#666666;labelBackgroundColor=none;labelBorderColor=none;" vertex="1" parent="1">
          <mxGeometry x="320" y="680" width="40" height="70" as="geometry" />
        </mxCell>
        <mxCell id="x6KIibof9C7e68i9qz5j-47" value="&lt;font color=&quot;#00994d&quot;&gt;L1&lt;/font&gt;" style="ellipse;whiteSpace=wrap;html=1;" vertex="1" parent="1">
          <mxGeometry x="980" y="340" width="100" height="60" as="geometry" />
        </mxCell>
        <mxCell id="x6KIibof9C7e68i9qz5j-48" value="Commit:&amp;nbsp;e1b738c" style="text;html=1;strokeColor=none;fillColor=none;align=center;verticalAlign=middle;whiteSpace=wrap;rounded=0;" vertex="1" parent="1">
          <mxGeometry x="1090" y="350" width="110" height="30" as="geometry" />
        </mxCell>
        <mxCell id="x6KIibof9C7e68i9qz5j-49" value="&lt;font color=&quot;#7f00ff&quot;&gt;L1&lt;/font&gt;" style="ellipse;whiteSpace=wrap;html=1;" vertex="1" parent="1">
          <mxGeometry x="850" y="340" width="100" height="60" as="geometry" />
        </mxCell>
        <mxCell id="x6KIibof9C7e68i9qz5j-54" value="Commit:&amp;nbsp;e33af44" style="text;html=1;strokeColor=none;fillColor=none;align=center;verticalAlign=middle;whiteSpace=wrap;rounded=0;" vertex="1" parent="1">
          <mxGeometry x="739" y="350" width="110" height="30" as="geometry" />
        </mxCell>
        <mxCell id="x6KIibof9C7e68i9qz5j-55" value="branch2" style="verticalLabelPosition=middle;verticalAlign=middle;html=1;shape=offPageConnector;rounded=0;size=0.5;rotation=-90;labelPosition=center;align=center;horizontal=0;fillColor=#cce5ff;strokeColor=#36393d;" vertex="1" parent="1">
          <mxGeometry x="370" y="850.75" width="40" height="70" as="geometry" />
        </mxCell>
        <mxCell id="x6KIibof9C7e68i9qz5j-57" value="branch2" style="verticalLabelPosition=middle;verticalAlign=middle;html=1;strokeWidth=2;shape=mxgraph.arrows2.arrow;dy=0.63;dx=40;notch=0;labelBackgroundColor=none;labelBorderColor=none;strokeColor=#10739e;gradientDirection=north;labelPosition=center;align=center;fillColor=#b1ddf0;" vertex="1" parent="1">
          <mxGeometry x="667" y="335" width="72" height="60" as="geometry" />
        </mxCell>
        <mxCell id="x6KIibof9C7e68i9qz5j-58" value="HEAD" style="verticalLabelPosition=middle;verticalAlign=middle;html=1;strokeWidth=2;shape=mxgraph.arrows2.arrow;dy=0.63;dx=40;notch=0;labelBackgroundColor=none;labelBorderColor=none;strokeColor=#666666;gradientDirection=north;labelPosition=center;align=center;fillColor=#f5f5f5;gradientColor=#b3b3b3;" vertex="1" parent="1">
          <mxGeometry x="588" y="335" width="72" height="60" as="geometry" />
        </mxCell>
      </root>
    </mxGraphModel>
  </diagram>
</mxfile>
